<svg width="154" height="115" viewBox="0 0 154 115" fill="none" xmlns="http://www.w3.org/2000/svg">
<path d="M-52 1H146.059L152.937 114H-52V1Z" stroke="url(#paint0_linear_163_7)" stroke-width="2"/>
<g clip-path="url(#clip0_163_7)">
<path d="M81.8283 52.4071L89.9007 58.1534C90.2594 58.4088 90.7406 58.4088 91.0993 58.1534L99.1717 52.4071C100.853 51.216 101.857 49.2866 101.867 47.2259V34.9995C101.867 34.5881 101.624 34.2155 101.247 34.0509L90.9133 29.5869C90.6522 29.4743 90.3561 29.4743 90.0949 29.5869L79.7616 34.0509C79.3845 34.2155 79.141 34.5881 79.1416 34.9995V47.2259C79.1496 49.2851 80.1499 51.2141 81.8283 52.4071ZM81.2 35.6784L90.5 31.6619L99.8 35.6784V47.2259C99.7925 48.6206 99.1116 49.9258 97.972 50.73L90.5 56.0434L83.028 50.7238C81.8898 49.9212 81.209 48.6186 81.2 47.2259V35.6784Z" fill="url(#paint1_linear_163_7)"/>
<path d="M87.8133 49.5933C88.2598 49.9284 88.8916 49.8483 89.2404 49.4125L97.507 39.0792C97.8637 38.6335 97.7915 37.983 97.3458 37.6263C96.9001 37.2696 96.2497 37.3418 95.893 37.7875L88.2463 47.3396L84.92 44.84C84.6246 44.6185 84.2336 44.5714 83.8941 44.7164C83.5546 44.8614 83.3182 45.1765 83.2741 45.5431C83.2299 45.9096 83.3847 46.2718 83.68 46.4933L87.8133 49.5933Z" fill="url(#paint2_linear_163_7)"/>
<path d="M46.0667 79.7675H47.1V83.9008C47.1 85.6129 48.4879 87.0008 50.2 87.0008H56.4C58.1121 87.0008 59.5 85.6129 59.5 83.9008V79.7675H84.3V83.9008C84.3 85.6129 85.6879 87.0008 87.4 87.0008H93.6C95.3121 87.0008 96.7 85.6129 96.7 83.9008V79.7675H97.7333C98.8747 79.7675 99.8 78.8422 99.8 77.7008V62.2008C99.8038 60.7033 99.1508 59.2793 98.0134 58.3052L101.568 55.7756C104.338 53.8082 105.989 50.6246 106 47.2268V32.2838C106.001 31.8723 105.757 31.4997 105.38 31.3352L90.9133 25.0856C90.6521 24.9729 90.3561 24.9729 90.0949 25.0856L75.62 31.3352C75.2429 31.4997 74.9994 31.8723 75 32.2838V36.3675H59.3657C57.1749 36.3682 55.2227 37.7506 54.4945 39.8168L48.4082 57.1106C45.8815 57.4825 44.007 59.6469 44 62.2008V77.7008C44 78.8422 44.9253 79.7675 46.0667 79.7675ZM57.4333 83.9008C57.4333 84.4715 56.9707 84.9342 56.4 84.9342H50.2C49.6293 84.9342 49.1667 84.4715 49.1667 83.9008V79.7675H57.4333V83.9008ZM53.3 77.7008H51.2333V75.6342H53.3V77.7008ZM94.6333 83.9008C94.6333 84.4715 94.1707 84.9342 93.6 84.9342H87.4C86.8293 84.9342 86.3666 84.4715 86.3666 83.9008V79.7675H94.6333V83.9008ZM92.5667 77.7008H90.5V75.6342H92.5667V77.7008ZM77.0667 32.9627L90.5 27.1595L103.933 32.9627V47.2227C103.923 49.9523 102.596 52.509 100.369 54.0881L90.5 61.1179L80.6306 54.0912C78.4044 52.5123 77.0772 49.956 77.0667 47.2268V32.9627ZM92.5667 63.2342C93.1373 63.2342 93.6 63.6968 93.6 64.2675V66.3342C93.6 66.9049 93.1373 67.3675 92.5667 67.3675H86.3666C85.796 67.3675 85.3333 66.9049 85.3333 66.3342C85.3333 64.6221 86.7212 63.2342 88.4333 63.2342H92.5667ZM75 42.5675V44.6342H67.7667V42.5675H75ZM75 40.5008H72.9333V38.4342H75V40.5008ZM56.4444 40.5008C56.8821 39.2628 58.0525 38.4348 59.3657 38.4342H70.8666V40.5008H67.7667C66.6253 40.5008 65.7 41.4261 65.7 42.5675V44.6342C65.7 45.7756 66.6253 46.7008 67.7667 46.7008H75V47.2268C75.0112 50.6246 76.6616 53.8082 79.432 55.7756L81.2 57.0342H50.6257L56.4444 40.5008ZM46.0667 62.2008C46.0667 60.4888 47.4546 59.1008 49.1667 59.1008H84.1037L87.2264 61.3246C84.909 61.8813 83.2732 63.9509 83.2667 66.3342C83.2667 68.0463 84.6546 69.4342 86.3666 69.4342H92.5667C94.2787 69.4342 95.6666 68.0463 95.6666 66.3342V64.2675C95.6633 62.9911 94.8779 61.8472 93.6878 61.3855L96.2463 59.5638C97.1731 60.1184 97.7384 61.1208 97.7333 62.2008L97.7333 77.7008H94.6333V75.6342C94.6333 74.4928 93.708 73.5675 92.5667 73.5675H90.5C89.3586 73.5675 88.4333 74.4928 88.4333 75.6342V77.7008H55.3667V75.6342C55.3667 74.4928 54.4414 73.5675 53.3 73.5675H51.2333C50.0919 73.5675 49.1667 74.4928 49.1667 75.6342V77.7008H46.0667V62.2008Z" fill="url(#paint3_linear_163_7)"/>
<path d="M62.6 40.5H60.8319C59.5183 40.5015 58.3475 41.3289 57.9076 42.5667L54.0285 53.5903C53.839 54.1287 54.1219 54.7188 54.6604 54.9083C55.1988 55.0978 55.7889 54.8148 55.9784 54.2764L59.8575 43.2569C60.003 42.8435 60.3936 42.5668 60.8319 42.5667H62.6C63.1707 42.5667 63.6333 42.104 63.6333 41.5333C63.6333 40.9626 63.1707 40.5 62.6 40.5Z" fill="url(#paint4_linear_163_7)"/>
<path d="M51.2333 69.4334H57.4333C59.1454 69.4334 60.5333 68.0455 60.5333 66.3334C60.5299 63.4814 58.2187 61.1702 55.3667 61.1667H51.2333C49.5212 61.1667 48.1333 62.5547 48.1333 64.2667V66.3334C48.1333 68.0455 49.5212 69.4334 51.2333 69.4334ZM50.2 64.2667C50.2 63.6961 50.6626 63.2334 51.2333 63.2334H55.3667C57.0787 63.2334 58.4667 64.6213 58.4667 66.3334C58.4667 66.9041 58.004 67.3667 57.4333 67.3667H51.2333C50.6626 67.3667 50.2 66.9041 50.2 66.3334V64.2667Z" fill="url(#paint5_linear_163_7)"/>
<path d="M64.6667 75.6334H79.1333C80.2747 75.6334 81.2 74.7081 81.2 73.5667V69.4334C81.2 68.292 80.2747 67.3667 79.1333 67.3667H64.6667C63.5253 67.3667 62.6 68.292 62.6 69.4334V73.5667C62.6 74.7081 63.5253 75.6334 64.6667 75.6334ZM64.6667 69.4334H79.1333V73.5667H64.6667V69.4334Z" fill="url(#paint6_linear_163_7)"/>
</g>
<defs>
<linearGradient id="paint0_linear_163_7" x1="28.7867" y1="-12.2541" x2="73.4914" y2="118.184" gradientUnits="userSpaceOnUse">
<stop stop-color="#5151E5"/>
<stop offset="1" stop-color="#72EDF2"/>
</linearGradient>
<linearGradient id="paint1_linear_163_7" x1="88.1204" y1="26.4291" x2="105.865" y2="49.0923" gradientUnits="userSpaceOnUse">
<stop stop-color="#5151E5"/>
<stop offset="1" stop-color="#72EDF2"/>
</linearGradient>
<linearGradient id="paint2_linear_163_7" x1="88.9826" y1="36.0783" x2="95.4777" y2="48.3611" gradientUnits="userSpaceOnUse">
<stop stop-color="#5151E5"/>
<stop offset="1" stop-color="#72EDF2"/>
</linearGradient>
<linearGradient id="paint3_linear_163_7" x1="68.4965" y1="18.3946" x2="103.611" y2="75.3149" gradientUnits="userSpaceOnUse">
<stop stop-color="#5151E5"/>
<stop offset="1" stop-color="#72EDF2"/>
</linearGradient>
<linearGradient id="paint4_linear_163_7" x1="57.7878" y1="38.9584" x2="66.9272" y2="48.8544" gradientUnits="userSpaceOnUse">
<stop stop-color="#5151E5"/>
<stop offset="1" stop-color="#72EDF2"/>
</linearGradient>
<linearGradient id="paint5_linear_163_7" x1="53.0326" y1="60.2859" x2="56.7184" y2="69.2478" gradientUnits="userSpaceOnUse">
<stop stop-color="#5151E5"/>
<stop offset="1" stop-color="#72EDF2"/>
</linearGradient>
<linearGradient id="paint6_linear_163_7" x1="69.9489" y1="66.4858" x2="72.6209" y2="76.231" gradientUnits="userSpaceOnUse">
<stop stop-color="#5151E5"/>
<stop offset="1" stop-color="#72EDF2"/>
</linearGradient>
<clipPath id="clip0_163_7">
<rect width="62" height="62" fill="white" transform="translate(44 25)"/>
</clipPath>
</defs>
</svg>
