<svg width="28" height="29" viewBox="0 0 28 29" fill="none" xmlns="http://www.w3.org/2000/svg">
<path d="M25.5991 0.272999C25.4173 0.0910953 25.2079 0.000286605 24.9711 0.000286605C24.7349 0.000286605 24.5256 0.0910953 24.3438 0.272999L13.618 10.9983L2.89267 0.272712C2.71077 0.0908087 2.50143 0 2.26495 0C2.02837 0 1.81903 0.0908087 1.63723 0.272712L0.272998 1.63742C0.0908083 1.81932 0 2.02866 0 2.26505C0 2.50153 0.091095 2.71096 0.272998 2.89306L12.9903 15.6106C13.1721 15.7925 13.3815 15.8834 13.618 15.8834C13.8545 15.8834 14.0635 15.7925 14.2452 15.6106L26.9636 2.89306C27.1454 2.71115 27.2357 2.50182 27.2357 2.26552C27.2357 2.02904 27.1448 1.81999 26.9636 1.6378L25.5991 0.272999Z" fill="#5B82EA"/>
<path d="M25.5991 13.273C25.4173 13.0911 25.2079 13.0003 24.9711 13.0003C24.7349 13.0003 24.5256 13.0911 24.3438 13.273L13.618 23.9983L2.89267 13.2727C2.71077 13.0908 2.50143 13 2.26495 13C2.02837 13 1.81903 13.0908 1.63723 13.2727L0.272998 14.6374C0.0908083 14.8193 0 15.0287 0 15.265C0 15.5015 0.091095 15.711 0.272998 15.8931L12.9903 28.6106C13.1721 28.7925 13.3815 28.8834 13.618 28.8834C13.8545 28.8834 14.0635 28.7925 14.2452 28.6106L26.9636 15.8931C27.1454 15.7112 27.2357 15.5018 27.2357 15.2655C27.2357 15.029 27.1448 14.82 26.9636 14.6378L25.5991 13.273Z" fill="#5B82EA"/>
</svg>
