<svg width="16" height="28" viewBox="0 0 16 28" fill="none" xmlns="http://www.w3.org/2000/svg">
<path d="M0.273014 1.63646C0.0911108 1.81827 0.000302165 2.0277 0.000302162 2.26447C0.000302159 2.50067 0.0911108 2.71 0.273014 2.89181L10.9983 13.6176L0.272727 24.3429C0.090824 24.5248 1.52886e-05 24.7342 1.52858e-05 24.9706C1.5283e-05 25.2072 0.090824 25.4166 0.272727 25.5984L1.63743 26.9626C1.81933 27.1448 2.02867 27.2356 2.26506 27.2356C2.50154 27.2356 2.71098 27.1445 2.89307 26.9626L15.6106 14.2453C15.7925 14.0635 15.8834 13.8541 15.8834 13.6176C15.8834 13.3811 15.7925 13.1721 15.6106 12.9904L2.89307 0.272043C2.71117 0.0902348 2.50183 -9.34302e-05 2.26554 -9.34331e-05C2.02905 -9.34359e-05 1.82 0.0908089 1.63781 0.272043L0.273014 1.63646Z" fill="#5B82EA"/>
</svg>
