<svg width="154" height="115" viewBox="0 0 154 115" fill="none" xmlns="http://www.w3.org/2000/svg">
<path d="M-52 1H145.067L152.928 114H-52V1Z" stroke="url(#paint0_linear_163_5)" stroke-width="2"/>
<g clip-path="url(#clip0_163_5)">
<path d="M92.1212 71.8832C92.1212 70.7608 91.6843 69.7055 90.8906 68.9127C90.3477 68.3689 89.6873 68.0233 88.9932 67.8406L91.1982 65.6345C91.992 64.8417 92.4288 63.7865 92.4288 62.6651C92.4288 61.5427 91.992 60.4884 91.1982 59.6958C90.4054 58.902 89.3501 58.4652 88.2288 58.4652C87.1064 58.4652 86.0521 58.902 85.2583 59.6958L83.3631 61.5911C83.1761 60.8834 82.8213 60.2282 82.2889 59.6958C81.4951 58.902 80.4408 58.4652 79.3184 58.4652C78.1969 58.4652 77.1417 58.902 76.349 59.6958L73.7104 62.3344C73.5235 61.6256 73.1686 60.9704 72.6362 60.4381C71.8434 59.6443 70.7893 59.2075 69.6668 59.2075C68.5444 59.2075 67.4901 59.6443 66.6975 60.4381L59.2498 67.8847L52.05 67.8847C51.4704 67.8847 51 68.3551 51 68.9346C51 69.5142 51.4704 69.9846 52.05 69.9846L57.6359 69.9846C57.0437 71.5061 57.342 73.3562 58.5295 74.5447C59.8346 75.8478 61.7824 76.0956 63.3511 75.3227C63.4949 76.1375 63.8666 76.9124 64.4703 77.5152C65.765 78.8088 67.6938 79.0629 69.2573 78.311C69.4137 79.1289 69.8075 79.8828 70.4092 80.4845C71.7039 81.7781 73.6337 82.0333 75.1972 81.2804C75.3536 82.0994 75.7473 82.8522 76.349 83.4539C77.1418 84.2477 78.1971 84.6845 79.3184 84.6845C80.4408 84.6845 81.4951 84.2477 82.2889 83.4539L90.8904 74.8523C91.6843 74.0598 92.1212 73.0045 92.1212 71.8832ZM60.0143 73.0603C59.6184 72.6633 59.4 72.1363 59.4 71.5756C59.4 71.0139 59.6184 70.4867 60.0143 70.0898L60.427 69.6771L68.1823 61.9228C68.5792 61.5258 69.1062 61.3076 69.6669 61.3076C70.2277 61.3076 70.7548 61.526 71.1516 61.9228C71.9444 62.7166 71.9444 64.0995 71.1516 64.8922L62.9848 73.0601C62.1656 73.8782 60.8333 73.8782 60.0143 73.0603ZM65.9551 76.0307C65.5582 75.6338 65.3398 75.1057 65.3398 74.545C65.3398 73.9842 65.5582 73.4571 65.9551 73.0603L77.8338 61.1806C78.2308 60.7836 78.7578 60.5653 79.3185 60.5653C79.8802 60.5653 80.4073 60.7838 80.8043 61.1806C81.5971 61.9734 81.5971 63.3573 80.8043 64.1499L76.1843 68.77L70.4093 74.545C70.4082 74.5461 70.4082 74.5461 70.4072 74.547L68.9246 76.0307C68.1056 76.8486 66.7731 76.8486 65.9551 76.0307ZM71.894 79.0001C71.4981 78.6032 71.2797 78.0762 71.2797 77.5143C71.2797 76.9547 71.497 76.4276 71.8919 76.0317L77.6689 70.2547L86.7441 61.1806C87.14 60.7836 87.6671 60.5653 88.2288 60.5653C88.7895 60.5653 89.3167 60.7838 89.7135 61.1806C90.5063 61.9734 90.5063 63.3573 89.7135 64.1499L84.9538 68.9106C84.9527 68.9106 84.9517 68.9117 84.9506 68.9127L80.6497 73.2136L74.8642 78.9991C74.0454 79.818 72.713 79.818 71.894 79.0001ZM79.3185 82.5848C78.7578 82.5848 78.2306 82.3664 77.8338 81.9695C77.438 81.5725 77.2196 81.0455 77.2196 80.4848C77.2196 79.9231 77.438 79.396 77.8338 79.0001L78.4397 78.3942L86.4397 70.3942C87.2587 69.5794 88.588 69.5794 89.406 70.3974C90.1988 71.1902 90.1998 72.5741 89.406 73.3679L80.8044 81.9695C80.4073 82.3664 79.8802 82.5848 79.3185 82.5848Z" fill="url(#paint1_linear_163_5)"/>
<path d="M77.25 38.5153C77.8295 38.5153 78.2999 38.046 78.2999 37.4653C78.2999 36.8857 77.8295 36.4153 77.25 36.4153C69.6605 36.4153 65.1875 39.5832 62.5153 41.4764C61.7352 42.0286 60.765 42.7152 60.45 42.7152L52.05 42.7152C51.4704 42.7152 51 43.1856 51 43.7652C51 44.3458 51.4704 44.8151 52.05 44.8151L60.45 44.8151C61.4328 44.8151 62.3967 44.1337 63.7292 43.1887C66.3574 41.3282 70.3284 38.5153 77.25 38.5153Z" fill="url(#paint2_linear_163_5)"/>
<path d="M109.8 68.9347C109.8 69.5143 110.27 69.9847 110.85 69.9847L112.95 69.9847C113.53 69.9847 114 69.5143 114 68.9347C114 68.3552 113.53 67.8848 112.95 67.8848L110.85 67.8848C110.27 67.8848 109.8 68.3552 109.8 68.9347Z" fill="url(#paint3_linear_163_5)"/>
<path d="M78.4764 41.0836C76.83 43.5531 72.3318 51.3095 72.1102 51.6959C71.7605 52.3973 71.8088 53.1764 72.2498 53.8883C73.198 55.4235 75.801 56.3653 77.25 56.3653C79.2671 56.3653 80.4934 54.9499 81.7913 53.4504C82.2406 52.9307 82.7069 52.3941 83.2424 51.8576L88.4924 46.6075C88.841 46.2599 89.1696 45.9314 89.2683 45.8862C89.3271 45.8673 89.5507 45.8652 89.7702 45.8652C90.4338 46.113 92.6514 48.0523 94.323 49.7219L104.854 61.3044C105.155 61.6099 105.6 62.2547 105.6 62.6652L105.6 72.1151C105.6 73.2733 104.658 74.2152 103.5 74.2152C102.342 74.2152 101.4 73.2734 101.4 72.1152L101.4 64.7652C101.4 63.3225 100.181 62.0625 100.042 61.9228L92.6922 54.5729C92.2817 54.1634 91.618 54.1634 91.2075 54.5729C90.7969 54.9835 90.7969 55.648 91.2075 56.0575L98.5544 63.4044C98.8548 63.7099 99.3 64.3547 99.3 64.7652L99.3 72.1152L99.3 75.2652C99.3 76.4233 98.3582 77.3652 97.1999 77.3652C96.0418 77.3652 95.0999 76.4234 95.0999 75.2652L95.0999 66.8651C95.0999 66.2856 94.6295 65.8152 94.0499 65.8152C93.4704 65.8152 93 66.2856 93 66.8651L93 75.2652L93 78.4152C93 79.5733 92.0582 80.5152 90.8999 80.5152C90.3813 80.5152 89.8845 80.3252 89.5003 79.9808C89.0676 79.5933 88.4041 79.6301 88.0166 80.0616C87.6291 80.4943 87.6669 81.1579 88.0985 81.5442C88.8692 82.2351 89.8636 82.6152 90.8999 82.6152C93.0651 82.6152 94.8312 80.9636 95.0558 78.8573C95.6858 79.2353 96.4135 79.4652 97.1999 79.4652C99.3651 79.4652 101.131 77.8136 101.356 75.7073C101.986 76.0853 102.714 76.3152 103.5 76.3152C105.816 76.3152 107.7 74.4315 107.7 72.1153L107.7 62.6653C107.7 61.2225 106.481 59.9625 106.377 59.8586L95.8422 48.2728C91.3345 43.7652 90.2174 43.7652 89.8498 43.7652C88.4565 43.7652 88.194 43.9363 87.0075 45.1229L81.7574 50.3729C81.1673 50.9619 80.656 51.5541 80.2035 52.076C78.9571 53.5145 78.2599 54.2652 77.2499 54.2652C75.9248 54.2652 73.9875 53.1354 73.9581 52.6923C74.0042 52.6126 78.6127 44.664 80.2234 42.248C82.0335 39.5327 84.8833 36.4152 90.8998 36.4152C95.4064 36.4152 101.516 39.9589 105.559 42.3036C108.447 43.9794 109.879 44.7847 110.85 44.7847L112.95 44.7847C113.529 44.7847 114 44.3143 114 43.7348C114 43.1552 113.529 42.6848 112.95 42.6848L110.861 42.6848C110.328 42.6417 108.354 41.4973 106.613 40.4872C102.122 37.8831 95.9723 34.3153 90.8998 34.3153C83.8084 34.3153 80.4136 38.1782 78.4764 41.0836Z" fill="url(#paint4_linear_163_5)"/>
</g>
<defs>
<linearGradient id="paint0_linear_163_5" x1="28.7867" y1="-12.2541" x2="73.4914" y2="118.184" gradientUnits="userSpaceOnUse">
<stop stop-color="#5151E5"/>
<stop offset="1" stop-color="#72EDF2"/>
</linearGradient>
<linearGradient id="paint1_linear_163_5" x1="46.5855" y1="74.3251" x2="73.511" y2="48.0788" gradientUnits="userSpaceOnUse">
<stop stop-color="#5151E5"/>
<stop offset="1" stop-color="#72EDF2"/>
</linearGradient>
<linearGradient id="paint2_linear_163_5" x1="48.091" y1="41.4963" x2="54.9837" y2="27.6764" gradientUnits="userSpaceOnUse">
<stop stop-color="#5151E5"/>
<stop offset="1" stop-color="#72EDF2"/>
</linearGradient>
<linearGradient id="paint3_linear_163_5" x1="109.353" y1="69.155" x2="111.463" y2="66.551" gradientUnits="userSpaceOnUse">
<stop stop-color="#5151E5"/>
<stop offset="1" stop-color="#72EDF2"/>
</linearGradient>
<linearGradient id="paint4_linear_163_5" x1="67.3911" y1="63.5317" x2="108.794" y2="41.2574" gradientUnits="userSpaceOnUse">
<stop stop-color="#5151E5"/>
<stop offset="1" stop-color="#72EDF2"/>
</linearGradient>
<clipPath id="clip0_163_5">
<rect width="63" height="63" fill="white" transform="translate(51 91) rotate(-90)"/>
</clipPath>
</defs>
</svg>
