<svg width="153" height="115" viewBox="0 0 153 115" fill="none" xmlns="http://www.w3.org/2000/svg">
<path d="M1.07198 114L8.93285 1H206V114H1.07198Z" stroke="url(#paint0_linear_163_6)" stroke-width="2"/>
<g clip-path="url(#clip0_163_6)">
<path d="M57.6875 69.8754H51.9375V72.7504H57.6875V69.8754Z" fill="url(#paint1_linear_163_6)"/>
<path d="M60.5625 75.6246H51.9375V78.4995H60.5625V75.6246Z" fill="url(#paint2_linear_163_6)"/>
<path d="M106.707 82.4719L90.7508 66.5137V31.0625C90.7508 28.6808 88.82 26.75 86.4383 26.75H57.5443C56.8783 23.4693 53.978 21 50.5008 21C47.0236 21 44.1234 23.4693 43.4574 26.75H43.3133C40.9316 26.75 39.0008 28.6808 39.0008 31.0625V85.6875C39.0008 88.0692 40.9316 90 43.3133 90H86.4383C88.82 90 90.7508 88.0692 90.7508 85.6875V78.9856L100.473 88.7062C101.299 89.5359 102.421 90.0016 103.592 90C104.762 89.9999 105.884 89.5347 106.711 88.7068C108.432 86.9841 108.43 84.1925 106.707 82.4719ZM50.5008 23.875C52.3783 23.875 53.9748 25.0752 54.5669 26.7499H46.4348C47.0268 25.0752 48.6232 23.875 50.5008 23.875ZM87.8759 85.6875C87.8759 86.4814 87.2322 87.125 86.4383 87.125H43.3133C42.5194 87.125 41.8758 86.4814 41.8758 85.6875V31.0625C41.8758 30.2686 42.5194 29.625 43.3133 29.625H54.8133V45.4375C54.8133 46.2314 54.1696 46.875 53.3757 46.875C52.5818 46.875 51.9382 46.2314 51.9382 45.4375V32.5H49.0634V45.4375C49.0634 47.8192 50.9942 49.75 53.3759 49.75C55.7576 49.75 57.6884 47.8192 57.6884 45.4375V29.625H86.4383C87.2322 29.625 87.8759 30.2686 87.8759 31.0625V63.6385L83.5634 59.3255V33.9375C83.5634 33.1436 82.9197 32.5 82.1258 32.5H60.5633V35.3749H80.6883V56.7641L72.7058 52.7818C72.3006 52.5787 71.8233 52.5787 71.418 52.7818C71.3409 52.8203 71.2699 52.866 71.2031 52.9157L71.2008 52.9126L67.1212 55.9687L64.8211 47.9188C64.754 47.6833 64.628 47.4689 64.4548 47.2959C63.8932 46.7346 62.9832 46.7348 62.4219 47.2963L58.5307 51.1875H47.6258C46.8319 51.1875 46.1883 51.8311 46.1883 52.625V82.8125C46.1883 83.6064 46.8319 84.2501 47.6258 84.2501H82.1258C82.9197 84.2501 83.5634 83.6064 83.5634 82.8125V71.799L87.8759 76.1109V85.6875ZM76.6604 60.044L75.2747 57.2753L78.0443 58.6601L76.6604 60.044ZM80.6883 68.9241V81.375H49.0634V54.0625H59.1259C59.5062 54.0627 59.8712 53.9123 60.1408 53.6441L62.7283 51.0566L64.9305 58.7689C64.9788 58.9381 65.0576 59.0973 65.1633 59.238C65.6398 59.873 66.5409 60.0014 67.1759 59.5249L71.5452 56.2479L74.98 63.1187L74.9837 63.117C75.0508 63.2502 75.139 63.3754 75.2502 63.4868L80.6883 68.9241ZM78.2992 62.4705L80.4712 60.2985L99.4607 79.2879L97.2887 81.4599L78.2992 62.4705ZM104.677 86.6765C104.078 87.2764 103.105 87.2764 102.505 86.6765L99.3217 83.4928L101.494 81.3208L104.677 84.5044C105.277 85.1042 105.277 86.0767 104.677 86.6765Z" fill="url(#paint3_linear_163_6)"/>
</g>
<defs>
<linearGradient id="paint0_linear_163_6" x1="81.7867" y1="-12.2541" x2="126.491" y2="118.184" gradientUnits="userSpaceOnUse">
<stop stop-color="#5151E5"/>
<stop offset="1" stop-color="#72EDF2"/>
</linearGradient>
<linearGradient id="paint1_linear_163_6" x1="54.2094" y1="69.5691" x2="55.2357" y2="72.8964" gradientUnits="userSpaceOnUse">
<stop stop-color="#5151E5"/>
<stop offset="1" stop-color="#72EDF2"/>
</linearGradient>
<linearGradient id="paint2_linear_163_6" x1="55.3453" y1="75.3182" x2="56.0642" y2="78.8143" gradientUnits="userSpaceOnUse">
<stop stop-color="#5151E5"/>
<stop offset="1" stop-color="#72EDF2"/>
</linearGradient>
<linearGradient id="paint3_linear_163_6" x1="66.2628" y1="13.6475" x2="105.342" y2="76.9942" gradientUnits="userSpaceOnUse">
<stop stop-color="#5151E5"/>
<stop offset="1" stop-color="#72EDF2"/>
</linearGradient>
<clipPath id="clip0_163_6">
<rect width="69" height="69" fill="white" transform="translate(39 21)"/>
</clipPath>
</defs>
</svg>
