<svg width="62" height="62" viewBox="0 0 62 62" fill="none" xmlns="http://www.w3.org/2000/svg">
<g clip-path="url(#clip0_26_110)">
<path d="M37.8283 27.4071L45.9007 33.1534C46.2594 33.4088 46.7406 33.4088 47.0993 33.1534L55.1717 27.4071C56.8534 26.216 57.8569 24.2866 57.8667 22.2259V9.99952C57.8673 9.58809 57.6238 9.21549 57.2467 9.05092L46.9133 4.58692C46.6522 4.47428 46.3561 4.47428 46.0949 4.58692L35.7616 9.05092C35.3845 9.21549 35.141 9.58809 35.1416 9.99952V22.2259C35.1496 24.2851 36.1499 26.2141 37.8283 27.4071ZM37.2 10.6784L46.5 6.66185L55.8 10.6784V22.2259C55.7925 23.6206 55.1116 24.9258 53.972 25.73L46.5 31.0434L39.028 25.7238C37.8898 24.9212 37.209 23.6186 37.2 22.2259V10.6784Z" fill="url(#paint0_linear_26_110)"/>
<path d="M43.8133 24.5933C44.2598 24.9284 44.8916 24.8483 45.2404 24.4125L53.507 14.0792C53.8637 13.6335 53.7915 12.983 53.3458 12.6263C52.9001 12.2696 52.2497 12.3418 51.893 12.7875L44.2463 22.3396L40.92 19.84C40.6246 19.6185 40.2336 19.5714 39.8941 19.7164C39.5546 19.8614 39.3182 20.1765 39.2741 20.5431C39.2299 20.9096 39.3847 21.2718 39.68 21.4933L43.8133 24.5933Z" fill="url(#paint1_linear_26_110)"/>
<path d="M2.06665 54.7675H3.09998V58.9008C3.09998 60.6129 4.4879 62.0008 6.19998 62.0008H12.4C14.1121 62.0008 15.5 60.6129 15.5 58.9008V54.7675H40.3V58.9008C40.3 60.6129 41.6879 62.0008 43.4 62.0008H49.6C51.3121 62.0008 52.7 60.6129 52.7 58.9008V54.7675H53.7333C54.8747 54.7675 55.8 53.8422 55.8 52.7008V37.2008C55.8038 35.7033 55.1508 34.2793 54.0134 33.3052L57.568 30.7756C60.3384 28.8082 61.9888 25.6246 62 22.2268V7.28377C62.0006 6.87234 61.7571 6.49975 61.38 6.33517L46.9133 0.0855731C46.6521 -0.0270595 46.3561 -0.0270595 46.0949 0.0855731L31.62 6.33517C31.2429 6.49975 30.9994 6.87234 31 7.28377V11.3675H15.3657C13.1749 11.3682 11.2227 12.7506 10.4945 14.8168L4.40818 32.1106C1.88148 32.4825 0.00703948 34.6469 -1.52588e-05 37.2008V52.7008C-1.52588e-05 53.8422 0.925263 54.7675 2.06665 54.7675ZM13.4333 58.9008C13.4333 59.4715 12.9707 59.9342 12.4 59.9342H6.19998C5.62929 59.9342 5.16665 59.4715 5.16665 58.9008V54.7675H13.4333V58.9008ZM9.29998 52.7008H7.23332V50.6342H9.29998V52.7008ZM50.6333 58.9008C50.6333 59.4715 50.1707 59.9342 49.6 59.9342H43.4C42.8293 59.9342 42.3666 59.4715 42.3666 58.9008V54.7675H50.6333V58.9008ZM48.5667 52.7008H46.5V50.6342H48.5667V52.7008ZM33.0667 7.96267L46.5 2.15947L59.9333 7.96267V22.2227C59.9231 24.9523 58.5958 27.509 56.3693 29.0881L46.5 36.1179L36.6306 29.0912C34.4044 27.5123 33.0772 24.956 33.0667 22.2268V7.96267ZM48.5667 38.2342C49.1373 38.2342 49.6 38.6968 49.6 39.2675V41.3342C49.6 41.9049 49.1373 42.3675 48.5667 42.3675H42.3666C41.796 42.3675 41.3333 41.9049 41.3333 41.3342C41.3333 39.6221 42.7212 38.2342 44.4333 38.2342H48.5667ZM31 17.5675V19.6342H23.7667V17.5675H31ZM31 15.5008H28.9333V13.4342H31V15.5008ZM12.4444 15.5008C12.8821 14.2628 14.0525 13.4348 15.3657 13.4342H26.8666V15.5008H23.7667C22.6253 15.5008 21.7 16.4261 21.7 17.5675V19.6342C21.7 20.7756 22.6253 21.7008 23.7667 21.7008H31V22.2268C31.0112 25.6246 32.6616 28.8082 35.432 30.7756L37.2 32.0342H6.62572L12.4444 15.5008ZM2.06665 37.2008C2.06665 35.4888 3.45457 34.1008 5.16665 34.1008H40.1037L43.2264 36.3246C40.909 36.8813 39.2732 38.9509 39.2667 41.3342C39.2667 43.0463 40.6546 44.4342 42.3666 44.4342H48.5667C50.2787 44.4342 51.6666 43.0463 51.6666 41.3342V39.2675C51.6633 37.9911 50.8779 36.8472 49.6878 36.3855L52.2463 34.5638C53.1731 35.1184 53.7384 36.1208 53.7333 37.2008L53.7333 52.7008H50.6333V50.6342C50.6333 49.4928 49.708 48.5675 48.5667 48.5675H46.5C45.3586 48.5675 44.4333 49.4928 44.4333 50.6342V52.7008H11.3667V50.6342C11.3667 49.4928 10.4414 48.5675 9.29998 48.5675H7.23332C6.09193 48.5675 5.16665 49.4928 5.16665 50.6342V52.7008H2.06665V37.2008Z" fill="url(#paint2_linear_26_110)"/>
<path d="M18.6 15.5H16.8319C15.5183 15.5015 14.3475 16.3289 13.9076 17.5667L10.0285 28.5903C9.83901 29.1287 10.1219 29.7188 10.6604 29.9083C11.1988 30.0978 11.7889 29.8148 11.9784 29.2764L15.8575 18.2569C16.003 17.8435 16.3936 17.5668 16.8319 17.5667H18.6C19.1707 17.5667 19.6333 17.104 19.6333 16.5333C19.6333 15.9626 19.1707 15.5 18.6 15.5Z" fill="url(#paint3_linear_26_110)"/>
<path d="M7.23333 44.4334H13.4333C15.1454 44.4334 16.5333 43.0455 16.5333 41.3334C16.5299 38.4814 14.2187 36.1702 11.3667 36.1667H7.23333C5.52125 36.1667 4.13333 37.5547 4.13333 39.2667V41.3334C4.13333 43.0455 5.52125 44.4334 7.23333 44.4334ZM6.2 39.2667C6.2 38.6961 6.66264 38.2334 7.23333 38.2334H11.3667C13.0787 38.2334 14.4667 39.6213 14.4667 41.3334C14.4667 41.9041 14.004 42.3667 13.4333 42.3667H7.23333C6.66264 42.3667 6.2 41.9041 6.2 41.3334V39.2667Z" fill="url(#paint4_linear_26_110)"/>
<path d="M20.6667 50.6334H35.1333C36.2747 50.6334 37.2 49.7081 37.2 48.5667V44.4334C37.2 43.292 36.2747 42.3667 35.1333 42.3667H20.6667C19.5253 42.3667 18.6 43.292 18.6 44.4334V48.5667C18.6 49.7081 19.5253 50.6334 20.6667 50.6334ZM20.6667 44.4334H35.1333V48.5667H20.6667V44.4334Z" fill="url(#paint5_linear_26_110)"/>
</g>
<defs>
<linearGradient id="paint0_linear_26_110" x1="44.1204" y1="1.42906" x2="61.8653" y2="24.0923" gradientUnits="userSpaceOnUse">
<stop stop-color="#5151E5"/>
<stop offset="1" stop-color="#72EDF2"/>
</linearGradient>
<linearGradient id="paint1_linear_26_110" x1="44.9826" y1="11.0783" x2="51.4777" y2="23.3611" gradientUnits="userSpaceOnUse">
<stop stop-color="#5151E5"/>
<stop offset="1" stop-color="#72EDF2"/>
</linearGradient>
<linearGradient id="paint2_linear_26_110" x1="24.4965" y1="-6.60543" x2="59.6112" y2="50.3149" gradientUnits="userSpaceOnUse">
<stop stop-color="#5151E5"/>
<stop offset="1" stop-color="#72EDF2"/>
</linearGradient>
<linearGradient id="paint3_linear_26_110" x1="13.7878" y1="13.9584" x2="22.9272" y2="23.8544" gradientUnits="userSpaceOnUse">
<stop stop-color="#5151E5"/>
<stop offset="1" stop-color="#72EDF2"/>
</linearGradient>
<linearGradient id="paint4_linear_26_110" x1="9.03263" y1="35.2859" x2="12.7184" y2="44.2478" gradientUnits="userSpaceOnUse">
<stop stop-color="#5151E5"/>
<stop offset="1" stop-color="#72EDF2"/>
</linearGradient>
<linearGradient id="paint5_linear_26_110" x1="25.9489" y1="41.4858" x2="28.6209" y2="51.231" gradientUnits="userSpaceOnUse">
<stop stop-color="#5151E5"/>
<stop offset="1" stop-color="#72EDF2"/>
</linearGradient>
<clipPath id="clip0_26_110">
<rect width="62" height="62" fill="white"/>
</clipPath>
</defs>
</svg>
