<svg width="10" height="8" viewBox="0 0 10 8" fill="none" xmlns="http://www.w3.org/2000/svg">
<path d="M9.93038 1.09788L8.60164 0.0460253C8.56087 0.0135443 8.50668 -0.00297304 8.45321 0.000441155C8.39902 0.0036708 8.34841 0.0260938 8.31256 0.0629118L3.49321 5.0039L1.77961 2.96083C1.74693 2.92189 1.69827 2.89614 1.64449 2.8895C1.59081 2.8823 1.53601 2.8954 1.49278 2.92503L0.0813744 3.88543C-0.00887441 3.94689 -0.0268013 4.0626 0.0414232 4.14389L3.21437 7.92683C3.25145 7.97103 3.30882 7.99797 3.37028 8C3.37274 8 3.3753 8 3.37776 8C3.43656 8 3.4927 7.9773 3.53173 7.93725L9.94892 1.35828C10.0237 1.28178 10.0154 1.16505 9.93038 1.09788Z" fill="#00C35E"/>
</svg>
