<svg width="375" height="109" viewBox="0 0 375 109" fill="none" xmlns="http://www.w3.org/2000/svg">
<rect x="-13" width="400" height="109" fill="url(#paint0_linear_164_9)"/>
<rect x="-13" y="5" width="400" height="99" fill="black"/>
<path d="M56.5967 34.5V45H61.1117C62.9417 45 65.2367 44.445 65.2367 42.06C65.2367 40.515 64.2617 39.75 63.2267 39.45C64.1567 39.135 64.8167 38.385 64.8167 37.155C64.8167 35.355 63.4217 34.5 61.1867 34.5H56.5967ZM62.9867 41.82C62.9867 42.96 62.0867 43.17 61.0817 43.17H58.8317V40.47H61.2017C62.1017 40.47 62.9867 40.71 62.9867 41.82ZM62.5817 37.545C62.5817 38.355 61.9667 38.745 61.1117 38.745H58.8467V36.345H60.9917C61.9817 36.345 62.5817 36.72 62.5817 37.545ZM69.5597 38.1C69.5597 40.29 71.2847 41.4 73.1297 41.4C74.1197 41.4 74.9447 41.19 75.8447 40.71C75.5747 42.735 74.3147 43.32 72.9347 43.32C72.0647 43.32 71.1347 43.065 70.4297 42.6V44.58C71.2997 44.985 72.2897 45.21 73.2347 45.21C75.8297 45.21 78.0797 43.635 78.0797 39.9C78.0797 36.6 76.7447 34.59 73.4597 34.59C71.3747 34.59 69.5597 35.775 69.5597 38.1ZM73.6397 36.42C74.8097 36.42 75.6347 36.99 75.8447 38.91C75.1847 39.315 74.4797 39.525 73.8047 39.525C72.7547 39.525 71.8097 39.165 71.8097 37.995C71.8097 36.87 72.6497 36.42 73.6397 36.42ZM80.0538 34.785L79.6938 40.71C80.5788 40.395 81.5238 40.275 82.2588 40.275C83.8938 40.275 84.7488 40.77 84.7488 41.775C84.7488 42.765 83.7588 43.245 82.4238 43.245C81.4038 43.245 80.2188 42.96 79.3938 42.435V44.52C80.2938 44.955 81.4938 45.21 82.6787 45.21C84.9288 45.21 86.9988 44.175 86.9988 41.805C86.9988 39.465 85.3038 38.55 83.2638 38.55C82.8438 38.55 82.3788 38.61 81.9438 38.7L82.0788 36.705L86.5338 36.72V34.785H80.0538ZM92.1718 45.9L98.3068 33.6H96.8068L90.6718 45.9H92.1718ZM93.4168 36.87C93.4168 35.175 92.1568 34.29 90.7168 34.29C89.2618 34.29 87.9868 35.175 87.9868 36.87C87.9868 38.565 89.2618 39.45 90.7168 39.45C92.1568 39.45 93.4168 38.565 93.4168 36.87ZM89.6668 36.87C89.6668 36.33 89.9818 35.835 90.7168 35.835C91.4218 35.835 91.7368 36.33 91.7368 36.87C91.7368 37.41 91.4218 37.905 90.7168 37.905C89.9818 37.905 89.6668 37.41 89.6668 36.87ZM100.932 42.63C100.932 40.935 99.6718 40.05 98.2318 40.05C96.7768 40.05 95.5018 40.935 95.5018 42.63C95.5018 44.325 96.7768 45.21 98.2318 45.21C99.6718 45.21 100.932 44.325 100.932 42.63ZM97.1818 42.63C97.1818 42.09 97.4968 41.595 98.2318 41.595C98.9368 41.595 99.2518 42.09 99.2518 42.63C99.2518 43.17 98.9368 43.665 98.2318 43.665C97.4968 43.665 97.1818 43.17 97.1818 42.63ZM105.17 41.505C105.17 44.07 107.135 45.21 109.1 45.21C110.015 45.21 110.825 45.03 111.53 44.73V42.885C111.005 43.2 110.27 43.41 109.505 43.41C108.38 43.41 107.3 42.78 107.3 41.4C107.3 39.945 108.395 39.39 109.535 39.39C110.225 39.39 110.945 39.6 111.455 39.93V38.1C110.81 37.755 110.03 37.575 109.235 37.575C107.24 37.575 105.17 38.745 105.17 41.505ZM116.168 39.45H118.013V45H120.098V37.8H114.248C114.113 41.025 113.858 43.38 112.718 43.38C112.583 43.38 112.433 43.35 112.283 43.29V44.94C112.703 45.09 113.093 45.15 113.423 45.15C115.403 45.15 115.958 42.69 116.168 39.45ZM125.329 42.66L123.229 37.8H121.024L124.429 45.105L124.414 45.135C124.024 46.2 123.454 46.71 122.704 46.71C122.419 46.71 122.134 46.665 121.849 46.605V48.33C122.224 48.42 122.599 48.495 122.974 48.495C124.144 48.495 125.269 47.88 126.079 45.87L129.274 37.8H127.114L125.329 42.66ZM136.647 45V37.8H134.577V41.07C134.187 41.235 133.782 41.295 133.302 41.295C132.537 41.295 132.012 41.025 132.012 40.17V37.8H129.927V40.365C129.927 42.225 131.187 43.05 132.732 43.05C133.452 43.05 134.007 42.96 134.577 42.75V45H136.647ZM144.852 43.14V40.845C144.852 38.475 143.472 37.59 141.312 37.59C140.202 37.59 139.107 37.875 138.522 38.07V39.87C139.197 39.6 140.082 39.33 141.072 39.33C142.197 39.33 142.767 39.825 142.767 40.545V40.8C142.257 40.68 141.627 40.605 141.057 40.605C139.617 40.605 137.892 41.175 137.892 43.005C137.892 44.43 139.062 45.21 140.412 45.21C141.477 45.21 142.302 44.88 143.007 44.325C143.307 44.865 143.862 45.135 144.597 45.135C145.002 45.135 145.422 45.045 145.752 44.925V43.56C145.617 43.605 145.482 43.62 145.362 43.62C145.092 43.62 144.852 43.515 144.852 43.14ZM141.537 41.85C141.972 41.85 142.452 41.94 142.767 42.015V43.14C142.287 43.56 141.732 43.725 141.147 43.725C140.517 43.725 140.022 43.38 140.022 42.84C140.022 42.105 140.772 41.85 141.537 41.85ZM146.464 41.4C146.464 43.905 148.354 45.21 150.634 45.21C151.714 45.21 152.599 45.045 153.274 44.76V43.125C152.659 43.395 151.924 43.56 151.099 43.56C149.914 43.56 148.804 43.125 148.564 42.075H153.634C154.114 39.945 153.154 37.59 150.169 37.59C148.549 37.59 146.464 38.685 146.464 41.4ZM151.759 40.725H148.549C148.579 39.735 149.359 39.18 150.244 39.18C151.549 39.18 151.834 40.23 151.759 40.725ZM159.453 45C161.268 45 161.868 44.07 161.868 43.05C161.868 42.18 161.373 41.61 160.593 41.355C161.298 41.085 161.703 40.53 161.703 39.705C161.703 38.73 161.043 37.8 159.333 37.8H155.043V45H159.453ZM157.128 42.015H158.838C159.348 42.015 159.798 42.195 159.798 42.81C159.798 43.38 159.363 43.575 158.838 43.575H157.128V42.015ZM157.113 39.225H158.688C159.168 39.225 159.603 39.405 159.603 40.005C159.603 40.56 159.198 40.755 158.703 40.755H157.113V39.225ZM168.686 45V39.555H171.596V45H173.681V37.8H166.601V45H168.686ZM175.043 41.4C175.043 43.92 176.933 45.21 179.018 45.21C181.118 45.21 182.993 43.92 182.993 41.4C182.993 38.88 181.118 37.59 179.018 37.59C176.933 37.59 175.043 38.88 175.043 41.4ZM180.878 41.4C180.878 42.51 180.218 43.35 179.018 43.35C177.833 43.35 177.173 42.51 177.173 41.4C177.173 40.29 177.833 39.45 179.018 39.45C180.218 39.45 180.878 40.29 180.878 41.4ZM187.884 45V39.555H190.179V37.8H183.519V39.555H185.814V45H187.884ZM193.143 38.85V37.8H191.298V48.3H193.383V44.235C193.848 44.745 194.613 45.21 195.753 45.21C198.033 45.21 199.263 43.365 199.263 41.4C199.263 39.435 198.033 37.59 195.753 37.59C194.418 37.59 193.593 38.205 193.143 38.85ZM197.133 41.4C197.133 42.525 196.428 43.455 195.243 43.455C194.328 43.455 193.653 42.885 193.368 42.255V40.545C193.653 39.915 194.328 39.345 195.243 39.345C196.428 39.345 197.133 40.275 197.133 41.4ZM207.064 43.14V40.845C207.064 38.475 205.684 37.59 203.524 37.59C202.414 37.59 201.319 37.875 200.734 38.07V39.87C201.409 39.6 202.294 39.33 203.284 39.33C204.409 39.33 204.979 39.825 204.979 40.545V40.8C204.469 40.68 203.839 40.605 203.269 40.605C201.829 40.605 200.104 41.175 200.104 43.005C200.104 44.43 201.274 45.21 202.624 45.21C203.689 45.21 204.514 44.88 205.219 44.325C205.519 44.865 206.074 45.135 206.809 45.135C207.214 45.135 207.634 45.045 207.964 44.925V43.56C207.829 43.605 207.694 43.62 207.574 43.62C207.304 43.62 207.064 43.515 207.064 43.14ZM203.749 41.85C204.184 41.85 204.664 41.94 204.979 42.015V43.14C204.499 43.56 203.944 43.725 203.359 43.725C202.729 43.725 202.234 43.38 202.234 42.84C202.234 42.105 202.984 41.85 203.749 41.85ZM215.265 45V37.8H213.195V41.07C212.805 41.235 212.4 41.295 211.92 41.295C211.155 41.295 210.63 41.025 210.63 40.17V37.8H208.545V40.365C208.545 42.225 209.805 43.05 211.35 43.05C212.07 43.05 212.625 42.96 213.195 42.75V45H215.265ZM216.63 41.4C216.63 43.905 218.52 45.21 220.8 45.21C221.88 45.21 222.765 45.045 223.44 44.76V43.125C222.825 43.395 222.09 43.56 221.265 43.56C220.08 43.56 218.97 43.125 218.73 42.075H223.8C224.28 39.945 223.32 37.59 220.335 37.59C218.715 37.59 216.63 38.685 216.63 41.4ZM221.925 40.725H218.715C218.745 39.735 219.525 39.18 220.41 39.18C221.715 39.18 222 40.23 221.925 40.725ZM227.294 45V42.27H230.204V45H232.289V37.8H230.204V40.53H227.294V37.8H225.209V45H227.294ZM236.142 45V42.27H239.052V45H241.137V37.8H239.052V40.53H236.142V37.8H234.057V45H236.142ZM246.655 45C248.545 45 249.565 43.905 249.565 42.525C249.565 41.145 248.545 40.05 246.655 40.05H244.99V37.8H242.905V45H246.655ZM244.975 41.55H246.145C246.97 41.55 247.42 41.91 247.42 42.525C247.42 43.14 246.97 43.5 246.145 43.5H244.975V41.55ZM252.82 45V37.8H250.735V45H252.82ZM254.189 41.4C254.189 43.905 256.079 45.21 258.359 45.21C259.439 45.21 260.324 45.045 260.999 44.76V43.125C260.384 43.395 259.649 43.56 258.824 43.56C257.639 43.56 256.529 43.125 256.289 42.075H261.359C261.839 39.945 260.879 37.59 257.894 37.59C256.274 37.59 254.189 38.685 254.189 41.4ZM259.484 40.725H256.274C256.304 39.735 257.084 39.18 257.969 39.18C259.274 39.18 259.559 40.23 259.484 40.725ZM267.443 46.905V45H272.663V46.905H274.583V43.41H273.503V37.8H267.578C267.623 40.08 267.398 41.895 266.528 43.41H265.523V46.905H267.443ZM269.498 39.39H271.433V43.41H268.688C269.228 42.24 269.438 41.085 269.498 39.39ZM275.312 41.4C275.312 43.905 277.202 45.21 279.482 45.21C280.562 45.21 281.447 45.045 282.122 44.76V43.125C281.507 43.395 280.772 43.56 279.947 43.56C278.762 43.56 277.652 43.125 277.412 42.075H282.482C282.962 39.945 282.002 37.59 279.017 37.59C277.397 37.59 275.312 38.685 275.312 41.4ZM280.607 40.725H277.397C277.427 39.735 278.207 39.18 279.092 39.18C280.397 39.18 280.682 40.23 280.607 40.725ZM285.976 45V42.27H288.886V45H290.971V37.8H288.886V40.53H285.976V37.8H283.891V45H285.976ZM296.489 45C298.379 45 299.399 43.905 299.399 42.525C299.399 41.145 298.379 40.05 296.489 40.05H294.824V37.8H292.739V45H296.489ZM294.809 41.55H295.979C296.804 41.55 297.254 41.91 297.254 42.525C297.254 43.14 296.804 43.5 295.979 43.5H294.809V41.55ZM302.704 45V39.555H306.109V37.8H300.619V45H302.704ZM309.041 45L312.251 40.95V45H314.321V37.8H312.521L309.311 41.85V37.8H307.226V45H309.041ZM67.0989 60V57.27H70.0089V60H72.0939V52.8H70.0089V55.53H67.0989V52.8H65.0139V60H67.0989ZM80.2966 58.14V55.845C80.2966 53.475 78.9166 52.59 76.7566 52.59C75.6466 52.59 74.5516 52.875 73.9666 53.07V54.87C74.6416 54.6 75.5266 54.33 76.5166 54.33C77.6416 54.33 78.2116 54.825 78.2116 55.545V55.8C77.7016 55.68 77.0716 55.605 76.5016 55.605C75.0616 55.605 73.3366 56.175 73.3366 58.005C73.3366 59.43 74.5066 60.21 75.8566 60.21C76.9216 60.21 77.7466 59.88 78.4516 59.325C78.7516 59.865 79.3066 60.135 80.0416 60.135C80.4466 60.135 80.8666 60.045 81.1966 59.925V58.56C81.0616 58.605 80.9266 58.62 80.8066 58.62C80.5366 58.62 80.2966 58.515 80.2966 58.14ZM76.9816 56.85C77.4166 56.85 77.8966 56.94 78.2116 57.015V58.14C77.7316 58.56 77.1766 58.725 76.5916 58.725C75.9616 58.725 75.4666 58.38 75.4666 57.84C75.4666 57.105 76.2166 56.85 76.9816 56.85ZM87.7239 60V54.555H90.6339V60H92.7189V52.8H85.6389V60H87.7239ZM94.0816 56.4C94.0816 58.92 95.9716 60.21 98.0566 60.21C100.157 60.21 102.032 58.92 102.032 56.4C102.032 53.88 100.157 52.59 98.0566 52.59C95.9716 52.59 94.0816 53.88 94.0816 56.4ZM99.9166 56.4C99.9166 57.51 99.2566 58.35 98.0566 58.35C96.8716 58.35 96.2116 57.51 96.2116 56.4C96.2116 55.29 96.8716 54.45 98.0566 54.45C99.2566 54.45 99.9166 55.29 99.9166 56.4ZM104.552 61.905V60H109.772V61.905H111.692V58.41H110.612V52.8H104.687C104.732 55.08 104.507 56.895 103.637 58.41H102.632V61.905H104.552ZM106.607 54.39H108.542V58.41H105.797C106.337 57.24 106.547 56.085 106.607 54.39ZM120.191 56.715C120.191 54.51 118.766 53.25 116.996 53.25C115.901 53.25 115.106 53.745 114.656 54.375C114.761 53.67 115.151 52.785 115.976 52.335C117.371 51.6 118.586 51.99 119.561 51.195V49.29C118.556 50.265 116.801 49.695 114.731 50.985C113.441 51.795 112.526 53.28 112.526 55.86C112.526 58.965 114.251 60.21 116.366 60.21C118.541 60.21 120.191 59.01 120.191 56.715ZM114.656 56.73C114.656 55.965 115.106 54.915 116.366 54.915C117.641 54.915 118.061 55.92 118.061 56.73C118.061 57.54 117.641 58.545 116.366 58.545C115.106 58.545 114.656 57.54 114.656 56.73ZM121.167 56.4C121.167 58.92 123.057 60.21 125.142 60.21C127.242 60.21 129.117 58.92 129.117 56.4C129.117 53.88 127.242 52.59 125.142 52.59C123.057 52.59 121.167 53.88 121.167 56.4ZM127.002 56.4C127.002 57.51 126.342 58.35 125.142 58.35C123.957 58.35 123.297 57.51 123.297 56.4C123.297 55.29 123.957 54.45 125.142 54.45C126.342 54.45 127.002 55.29 127.002 56.4ZM132.323 53.85V52.8H130.478V63.3H132.563V59.235C133.028 59.745 133.793 60.21 134.933 60.21C137.213 60.21 138.443 58.365 138.443 56.4C138.443 54.435 137.213 52.59 134.933 52.59C133.598 52.59 132.773 53.205 132.323 53.85ZM136.313 56.4C136.313 57.525 135.608 58.455 134.423 58.455C133.508 58.455 132.833 57.885 132.548 57.255V55.545C132.833 54.915 133.508 54.345 134.423 54.345C135.608 54.345 136.313 55.275 136.313 56.4ZM149.569 58.14V55.845C149.569 53.475 148.189 52.59 146.029 52.59C144.919 52.59 143.824 52.875 143.239 53.07V54.87C143.914 54.6 144.799 54.33 145.789 54.33C146.914 54.33 147.484 54.825 147.484 55.545V55.8C146.974 55.68 146.344 55.605 145.774 55.605C144.334 55.605 142.609 56.175 142.609 58.005C142.609 59.43 143.779 60.21 145.129 60.21C146.194 60.21 147.019 59.88 147.724 59.325C148.024 59.865 148.579 60.135 149.314 60.135C149.719 60.135 150.139 60.045 150.469 59.925V58.56C150.334 58.605 150.199 58.62 150.079 58.62C149.809 58.62 149.569 58.515 149.569 58.14ZM146.254 56.85C146.689 56.85 147.169 56.94 147.484 57.015V58.14C147.004 58.56 146.449 58.725 145.864 58.725C145.234 58.725 144.739 58.38 144.739 57.84C144.739 57.105 145.489 56.85 146.254 56.85ZM155.996 60C157.811 60 158.411 59.07 158.411 58.05C158.411 57.18 157.916 56.61 157.136 56.355C157.841 56.085 158.246 55.53 158.246 54.705C158.246 53.73 157.586 52.8 155.876 52.8H151.586V60H155.996ZM153.671 57.015H155.381C155.891 57.015 156.341 57.195 156.341 57.81C156.341 58.38 155.906 58.575 155.381 58.575H153.671V57.015ZM153.656 54.225H155.231C155.711 54.225 156.146 54.405 156.146 55.005C156.146 55.56 155.741 55.755 155.246 55.755H153.656V54.225ZM163.436 60V54.555H165.731V52.8H159.071V54.555H161.366V60H163.436ZM166.254 56.4C166.254 58.92 168.144 60.21 170.229 60.21C172.329 60.21 174.204 58.92 174.204 56.4C174.204 53.88 172.329 52.59 170.229 52.59C168.144 52.59 166.254 53.88 166.254 56.4ZM172.089 56.4C172.089 57.51 171.429 58.35 170.229 58.35C169.044 58.35 168.384 57.51 168.384 56.4C168.384 55.29 169.044 54.45 170.229 54.45C171.429 54.45 172.089 55.29 172.089 56.4ZM177.591 60V55.755L179.286 58.44H180.321L182.016 55.755V60H184.026V52.8H182.046L179.796 56.37L177.561 52.8H175.566V60H177.591ZM185.385 56.4C185.385 58.92 187.275 60.21 189.36 60.21C191.46 60.21 193.335 58.92 193.335 56.4C193.335 53.88 191.46 52.59 189.36 52.59C187.275 52.59 185.385 53.88 185.385 56.4ZM191.22 56.4C191.22 57.51 190.56 58.35 189.36 58.35C188.175 58.35 187.515 57.51 187.515 56.4C187.515 55.29 188.175 54.45 189.36 54.45C190.56 54.45 191.22 55.29 191.22 56.4ZM202.062 56.715C202.062 54.51 200.637 53.25 198.867 53.25C197.772 53.25 196.977 53.745 196.527 54.375C196.632 53.67 197.022 52.785 197.847 52.335C199.242 51.6 200.457 51.99 201.432 51.195V49.29C200.427 50.265 198.672 49.695 196.602 50.985C195.312 51.795 194.397 53.28 194.397 55.86C194.397 58.965 196.122 60.21 198.237 60.21C200.412 60.21 202.062 59.01 202.062 56.715ZM196.527 56.73C196.527 55.965 196.977 54.915 198.237 54.915C199.512 54.915 199.932 55.92 199.932 56.73C199.932 57.54 199.512 58.545 198.237 58.545C196.977 58.545 196.527 57.54 196.527 56.73ZM205.257 60L208.467 55.95V60H210.537V52.8H208.737L205.527 56.85V52.8H203.442V60H205.257ZM215.499 54.45H217.344V60H219.429V52.8H213.579C213.444 56.025 213.189 58.38 212.049 58.38C211.914 58.38 211.764 58.35 211.614 58.29V59.94C212.034 60.09 212.424 60.15 212.754 60.15C214.734 60.15 215.289 57.69 215.499 54.45ZM222.906 60L224.511 57.855H225.681V60H227.766V52.8H223.866C221.976 52.8 220.986 53.97 220.986 55.32C220.986 56.295 221.481 57.165 222.456 57.585L220.566 60H222.906ZM223.101 55.38C223.101 54.78 223.536 54.45 224.286 54.45H225.681V56.295H224.286C223.536 56.295 223.101 55.965 223.101 55.38ZM232.451 56.4C232.451 58.92 234.341 60.21 236.426 60.21C238.526 60.21 240.401 58.92 240.401 56.4C240.401 53.88 238.526 52.59 236.426 52.59C234.341 52.59 232.451 53.88 232.451 56.4ZM238.286 56.4C238.286 57.51 237.626 58.35 236.426 58.35C235.241 58.35 234.581 57.51 234.581 56.4C234.581 55.29 235.241 54.45 236.426 54.45C237.626 54.45 238.286 55.29 238.286 56.4ZM243.847 60V57.15H244.687L246.757 60H249.097L246.412 56.355L248.887 52.8H246.547L244.717 55.485H243.847V52.8H241.762V60H243.847ZM253.445 57.66L251.345 52.8H249.14L252.545 60.105L252.53 60.135C252.14 61.2 251.57 61.71 250.82 61.71C250.535 61.71 250.25 61.665 249.965 61.605V63.33C250.34 63.42 250.715 63.495 251.09 63.495C252.26 63.495 253.385 62.88 254.195 60.87L257.39 52.8H255.23L253.445 57.66ZM260.517 60V54.555H263.427V60H265.512V52.8H258.432V60H260.517ZM273.715 58.14V55.845C273.715 53.475 272.335 52.59 270.175 52.59C269.065 52.59 267.97 52.875 267.385 53.07V54.87C268.06 54.6 268.945 54.33 269.935 54.33C271.06 54.33 271.63 54.825 271.63 55.545V55.8C271.12 55.68 270.49 55.605 269.92 55.605C268.48 55.605 266.755 56.175 266.755 58.005C266.755 59.43 267.925 60.21 269.275 60.21C270.34 60.21 271.165 59.88 271.87 59.325C272.17 59.865 272.725 60.135 273.46 60.135C273.865 60.135 274.285 60.045 274.615 59.925V58.56C274.48 58.605 274.345 58.62 274.225 58.62C273.955 58.62 273.715 58.515 273.715 58.14ZM270.4 56.85C270.835 56.85 271.315 56.94 271.63 57.015V58.14C271.15 58.56 270.595 58.725 270.01 58.725C269.38 58.725 268.885 58.38 268.885 57.84C268.885 57.105 269.635 56.85 270.4 56.85ZM286.907 56.4C286.907 53.88 285.017 52.59 282.932 52.59C281.177 52.59 279.497 53.61 279.122 55.575H277.817V52.8H275.732V60H277.817V57.225H279.122C279.497 59.19 281.177 60.21 282.932 60.21C285.017 60.21 286.907 58.92 286.907 56.4ZM281.087 56.4C281.087 55.29 281.687 54.36 282.932 54.36C284.177 54.36 284.792 55.29 284.792 56.4C284.792 57.51 284.177 58.44 282.932 58.44C281.687 58.44 281.087 57.51 281.087 56.4ZM291.8 60V54.555H294.095V52.8H287.435V54.555H289.73V60H291.8ZM294.619 56.505C294.619 59.07 296.584 60.21 298.549 60.21C299.464 60.21 300.274 60.03 300.979 59.73V57.885C300.454 58.2 299.719 58.41 298.954 58.41C297.829 58.41 296.749 57.78 296.749 56.4C296.749 54.945 297.844 54.39 298.984 54.39C299.674 54.39 300.394 54.6 300.904 54.93V53.1C300.259 52.755 299.479 52.575 298.684 52.575C296.689 52.575 294.619 53.745 294.619 56.505ZM304.131 60L305.736 57.855H306.906V60H308.991V52.8H305.091C303.201 52.8 302.211 53.97 302.211 55.32C302.211 56.295 302.706 57.165 303.681 57.585L301.791 60H304.131ZM304.326 55.38C304.326 54.78 304.761 54.45 305.511 54.45H306.906V56.295H305.511C304.761 56.295 304.326 55.965 304.326 55.38ZM134.979 71.715C134.979 69.51 133.554 68.25 131.784 68.25C130.689 68.25 129.894 68.745 129.444 69.375C129.549 68.67 129.939 67.785 130.764 67.335C132.159 66.6 133.374 66.99 134.349 66.195V64.29C133.344 65.265 131.589 64.695 129.519 65.985C128.229 66.795 127.314 68.28 127.314 70.86C127.314 73.965 129.039 75.21 131.154 75.21C133.329 75.21 134.979 74.01 134.979 71.715ZM129.444 71.73C129.444 70.965 129.894 69.915 131.154 69.915C132.429 69.915 132.849 70.92 132.849 71.73C132.849 72.54 132.429 73.545 131.154 73.545C129.894 73.545 129.444 72.54 129.444 71.73ZM139.466 69.45H141.311V75H143.396V67.8H137.546C137.411 71.025 137.156 73.38 136.016 73.38C135.881 73.38 135.731 73.35 135.581 73.29V74.94C136.001 75.09 136.391 75.15 136.721 75.15C138.701 75.15 139.256 72.69 139.466 69.45ZM151.598 73.14V70.845C151.598 68.475 150.218 67.59 148.058 67.59C146.948 67.59 145.853 67.875 145.268 68.07V69.87C145.943 69.6 146.828 69.33 147.818 69.33C148.943 69.33 149.513 69.825 149.513 70.545V70.8C149.003 70.68 148.373 70.605 147.803 70.605C146.363 70.605 144.638 71.175 144.638 73.005C144.638 74.43 145.808 75.21 147.158 75.21C148.223 75.21 149.048 74.88 149.753 74.325C150.053 74.865 150.608 75.135 151.343 75.135C151.748 75.135 152.168 75.045 152.498 74.925V73.56C152.363 73.605 152.228 73.62 152.108 73.62C151.838 73.62 151.598 73.515 151.598 73.14ZM148.283 71.85C148.718 71.85 149.198 71.94 149.513 72.015V73.14C149.033 73.56 148.478 73.725 147.893 73.725C147.263 73.725 146.768 73.38 146.768 72.84C146.768 72.105 147.518 71.85 148.283 71.85ZM155.7 75V69.555H159.105V67.8H153.615V75H155.7ZM159.626 71.4C159.626 73.92 161.516 75.21 163.601 75.21C165.701 75.21 167.576 73.92 167.576 71.4C167.576 68.88 165.701 67.59 163.601 67.59C161.516 67.59 159.626 68.88 159.626 71.4ZM165.461 71.4C165.461 72.51 164.801 73.35 163.601 73.35C162.416 73.35 161.756 72.51 161.756 71.4C161.756 70.29 162.416 69.45 163.601 69.45C164.801 69.45 165.461 70.29 165.461 71.4ZM170.097 76.905V75H175.317V76.905H177.237V73.41H176.157V67.8H170.232C170.277 70.08 170.052 71.895 169.182 73.41H168.177V76.905H170.097ZM172.152 69.39H174.087V73.41H171.342C171.882 72.24 172.092 71.085 172.152 69.39ZM184.967 73.14V70.845C184.967 68.475 183.587 67.59 181.427 67.59C180.317 67.59 179.222 67.875 178.637 68.07V69.87C179.312 69.6 180.197 69.33 181.187 69.33C182.312 69.33 182.882 69.825 182.882 70.545V70.8C182.372 70.68 181.742 70.605 181.172 70.605C179.732 70.605 178.007 71.175 178.007 73.005C178.007 74.43 179.177 75.21 180.527 75.21C181.592 75.21 182.417 74.88 183.122 74.325C183.422 74.865 183.977 75.135 184.712 75.135C185.117 75.135 185.537 75.045 185.867 74.925V73.56C185.732 73.605 185.597 73.62 185.477 73.62C185.207 73.62 184.967 73.515 184.967 73.14ZM181.652 71.85C182.087 71.85 182.567 71.94 182.882 72.015V73.14C182.402 73.56 181.847 73.725 181.262 73.725C180.632 73.725 180.137 73.38 180.137 72.84C180.137 72.105 180.887 71.85 181.652 71.85ZM188.829 68.85V67.8H186.984V78.3H189.069V74.235C189.534 74.745 190.299 75.21 191.439 75.21C193.719 75.21 194.949 73.365 194.949 71.4C194.949 69.435 193.719 67.59 191.439 67.59C190.104 67.59 189.279 68.205 188.829 68.85ZM192.819 71.4C192.819 72.525 192.114 73.455 190.929 73.455C190.014 73.455 189.339 72.885 189.054 72.255V70.545C189.339 69.915 190.014 69.345 190.929 69.345C192.114 69.345 192.819 70.275 192.819 71.4ZM197.967 75L199.572 72.855H200.742V75H202.827V67.8H198.927C197.037 67.8 196.047 68.97 196.047 70.32C196.047 71.295 196.542 72.165 197.517 72.585L195.627 75H197.967ZM198.162 70.38C198.162 69.78 198.597 69.45 199.347 69.45H200.742V71.295H199.347C198.597 71.295 198.162 70.965 198.162 70.38ZM211.637 75V69.555H213.932V67.8H207.272V69.555H209.567V75H211.637ZM214.455 71.4C214.455 73.92 216.345 75.21 218.43 75.21C220.53 75.21 222.405 73.92 222.405 71.4C222.405 68.88 220.53 67.59 218.43 67.59C216.345 67.59 214.455 68.88 214.455 71.4ZM220.29 71.4C220.29 72.51 219.63 73.35 218.43 73.35C217.245 73.35 216.585 72.51 216.585 71.4C216.585 70.29 217.245 69.45 218.43 69.45C219.63 69.45 220.29 70.29 220.29 71.4ZM225.611 68.85V67.8H223.766V78.3H225.851V74.235C226.316 74.745 227.081 75.21 228.221 75.21C230.501 75.21 231.731 73.365 231.731 71.4C231.731 69.435 230.501 67.59 228.221 67.59C226.886 67.59 226.061 68.205 225.611 68.85ZM229.601 71.4C229.601 72.525 228.896 73.455 227.711 73.455C226.796 73.455 226.121 72.885 225.836 72.255V70.545C226.121 69.915 226.796 69.345 227.711 69.345C228.896 69.345 229.601 70.275 229.601 71.4ZM235.182 75V69.555H238.587V67.8H233.097V75H235.182ZM243.169 72.66L241.069 67.8H238.864L242.269 75.105L242.254 75.135C241.864 76.2 241.294 76.71 240.544 76.71C240.259 76.71 239.974 76.665 239.689 76.605V78.33C240.064 78.42 240.439 78.495 240.814 78.495C241.984 78.495 243.109 77.88 243.919 75.87L247.114 67.8H244.954L243.169 72.66Z" fill="url(#paint1_linear_164_9)"/>
<defs>
<linearGradient id="paint0_linear_164_9" x1="147.5" y1="-77.9914" x2="202.184" y2="180.49" gradientUnits="userSpaceOnUse">
<stop stop-color="#5151E5"/>
<stop offset="1" stop-color="#72EDF2"/>
</linearGradient>
<linearGradient id="paint1_linear_164_9" x1="157" y1="28.418" x2="261.479" y2="158.644" gradientUnits="userSpaceOnUse">
<stop stop-color="#5151E5"/>
<stop offset="1" stop-color="#72EDF2"/>
</linearGradient>
</defs>
</svg>
