<svg width="153" height="115" viewBox="0 0 153 115" fill="none" xmlns="http://www.w3.org/2000/svg">
<path d="M1.60797 113.5L9.39928 1.5H205.5V113.5H1.60797Z" stroke="url(#paint0_linear_163_4)" stroke-width="3"/>
<path d="M64.634 65.989C65.675 65.908 66.624 65.377 67.24 64.53L76.603 51.586C76.89 51.189 76.847 50.641 76.499 50.293C76.151 49.946 75.603 49.903 75.206 50.189L62.26 59.555C61.416 60.169 60.885 61.118 60.804 62.159C60.723 63.2 61.1 64.219 61.837 64.956C62.508 65.628 63.413 66 64.354 66C64.447 66 64.54 65.996 64.634 65.989ZM62.798 62.315C62.833 61.858 63.067 61.441 63.435 61.173L71.332 55.46L65.621 63.355C65.351 63.726 64.934 63.959 64.477 63.995C64.022 64.025 63.575 63.867 63.25 63.542C62.928 63.219 62.762 62.771 62.798 62.315Z" fill="url(#paint1_linear_163_4)"/>
<path d="M87.034 47.564C87.024 47.543 87.024 47.521 87.013 47.5C87.001 47.48 86.982 47.469 86.969 47.45C85.958 45.716 84.762 44.103 83.404 42.641L85.552 40.494L86.966 41.908L91.208 37.665L86.966 33.423L82.723 37.665L84.138 39.08L81.99 41.227C80.528 39.869 78.916 38.672 77.181 37.661C77.162 37.648 77.151 37.629 77.131 37.617C77.11 37.605 77.088 37.606 77.067 37.595C73.974 35.813 70.499 34.626 66.794 34.191V33H68.294C69.673 33 70.794 31.879 70.794 30.5C70.794 29.121 69.672 28 68.293 28H59.293C57.914 28 56.793 29.121 56.793 30.5C56.793 31.879 57.914 33 59.293 33H60.793V34.156C59.713 34.271 58.635 34.447 57.569 34.691C57.031 34.814 56.694 35.351 56.818 35.889C56.941 36.427 57.478 36.765 58.016 36.64C58.936 36.429 59.865 36.27 60.796 36.163L61.869 36.08C62.197 36.055 62.499 36.037 62.793 36.023V38C62.793 38.553 63.24 39 63.793 39C64.346 39 64.793 38.553 64.793 38V36.03C68.554 36.203 72.098 37.213 75.249 38.875L74.263 40.582C73.987 41.061 74.151 41.672 74.629 41.948C74.786 42.039 74.958 42.082 75.128 42.082C75.474 42.082 75.81 41.903 75.995 41.582L76.978 39.879C80.107 41.864 82.765 44.522 84.75 47.651L83.047 48.634C82.57 48.91 82.406 49.521 82.683 50C82.869 50.321 83.204 50.5 83.55 50.5C83.72 50.5 83.892 50.457 84.049 50.366L85.756 49.38C87.441 52.576 88.454 56.178 88.605 59.999H86.63C86.077 59.999 85.63 60.446 85.63 60.999C85.63 61.552 86.077 61.999 86.63 61.999H88.605C88.454 65.82 87.441 69.422 85.756 72.618L84.049 71.632C83.571 71.356 82.959 71.518 82.683 71.998C82.407 72.477 82.571 73.088 83.049 73.364L84.752 74.347C82.767 77.476 80.109 80.134 76.98 82.119L75.997 80.416C75.72 79.936 75.107 79.773 74.631 80.05C74.152 80.326 73.988 80.938 74.265 81.416L75.251 83.123C72.1 84.785 68.556 85.795 64.795 85.968V84C64.795 83.447 64.348 83 63.795 83C63.242 83 62.795 83.447 62.795 84V85.976C61.198 85.921 59.596 85.721 58.019 85.359C57.481 85.23 56.944 85.572 56.821 86.11C56.697 86.648 57.034 87.185 57.572 87.308C59.568 87.768 61.607 88 63.63 88C63.679 88 63.726 87.997 63.775 87.996C63.782 87.996 63.787 88 63.793 88C63.801 88 63.808 87.995 63.816 87.995C68.623 87.962 73.133 86.664 77.035 84.422C77.066 84.408 77.099 84.401 77.129 84.383C77.149 84.371 77.16 84.352 77.179 84.339C81.218 81.985 84.593 78.614 86.952 74.578C86.971 74.551 86.995 74.53 87.012 74.5C87.024 74.479 87.023 74.457 87.033 74.436C89.317 70.476 90.63 65.89 90.63 61C90.63 56.11 89.317 51.524 87.034 47.564ZM86.965 36.251L88.379 37.665L86.965 39.08L85.55 37.665L86.965 36.251ZM62.793 34.021V31H59.293C59.018 31 58.793 30.775 58.793 30.5C58.793 30.225 59.018 30 59.293 30H68.293C68.568 30 68.793 30.225 68.793 30.5C68.793 30.775 68.568 31 68.293 31H64.793V34.021C64.445 34.007 64.113 34 63.793 34C63.765 34 63.733 34.002 63.705 34.002C63.68 34.002 63.655 34 63.63 34C63.466 34 63.302 34.011 63.138 34.014C63.022 34.017 62.913 34.016 62.793 34.021Z" fill="url(#paint2_linear_163_4)"/>
<path d="M54.793 42H49.793C49.24 42 48.793 42.447 48.793 43C48.793 43.553 49.24 44 49.793 44H54.793C55.346 44 55.793 43.553 55.793 43C55.793 42.447 55.346 42 54.793 42Z" fill="url(#paint3_linear_163_4)"/>
<path d="M54.793 49H44.793C44.24 49 43.793 49.447 43.793 50C43.793 50.553 44.24 51 44.793 51H54.793C55.346 51 55.793 50.553 55.793 50C55.793 49.447 55.346 49 54.793 49Z" fill="url(#paint4_linear_163_4)"/>
<path d="M54.793 56H39.793C39.24 56 38.793 56.447 38.793 57C38.793 57.553 39.24 58 39.793 58H54.793C55.346 58 55.793 57.553 55.793 57C55.793 56.447 55.346 56 54.793 56Z" fill="url(#paint5_linear_163_4)"/>
<path d="M54.793 63H35.793C35.24 63 34.793 63.447 34.793 64C34.793 64.553 35.24 65 35.793 65H54.793C55.346 65 55.793 64.553 55.793 64C55.793 63.447 55.346 63 54.793 63Z" fill="url(#paint6_linear_163_4)"/>
<path d="M54.793 70H41.793C41.24 70 40.793 70.447 40.793 71C40.793 71.553 41.24 72 41.793 72H54.793C55.346 72 55.793 71.553 55.793 71C55.793 70.447 55.346 70 54.793 70Z" fill="url(#paint7_linear_163_4)"/>
<path d="M54.793 77H47.793C47.24 77 46.793 77.447 46.793 78C46.793 78.553 47.24 79 47.793 79H54.793C55.346 79 55.793 78.553 55.793 78C55.793 77.447 55.346 77 54.793 77Z" fill="url(#paint8_linear_163_4)"/>
<defs>
<linearGradient id="paint0_linear_163_4" x1="81.7867" y1="-12.2541" x2="126.491" y2="118.184" gradientUnits="userSpaceOnUse">
<stop stop-color="#5151E5"/>
<stop offset="1" stop-color="#72EDF2"/>
</linearGradient>
<linearGradient id="paint1_linear_163_4" x1="67.1145" y1="48.2956" x2="76.1763" y2="62.9841" gradientUnits="userSpaceOnUse">
<stop stop-color="#5151E5"/>
<stop offset="1" stop-color="#72EDF2"/>
</linearGradient>
<linearGradient id="paint2_linear_163_4" x1="70.3901" y1="21.6066" x2="108.314" y2="56.8673" gradientUnits="userSpaceOnUse">
<stop stop-color="#5151E5"/>
<stop offset="1" stop-color="#72EDF2"/>
</linearGradient>
<linearGradient id="paint3_linear_163_4" x1="51.5587" y1="41.7869" x2="51.9921" y2="44.2454" gradientUnits="userSpaceOnUse">
<stop stop-color="#5151E5"/>
<stop offset="1" stop-color="#72EDF2"/>
</linearGradient>
<linearGradient id="paint4_linear_163_4" x1="48.5343" y1="48.7869" x2="48.7922" y2="51.2953" gradientUnits="userSpaceOnUse">
<stop stop-color="#5151E5"/>
<stop offset="1" stop-color="#72EDF2"/>
</linearGradient>
<linearGradient id="paint5_linear_163_4" x1="45.5098" y1="55.7869" x2="45.6928" y2="58.3085" gradientUnits="userSpaceOnUse">
<stop stop-color="#5151E5"/>
<stop offset="1" stop-color="#72EDF2"/>
</linearGradient>
<linearGradient id="paint6_linear_163_4" x1="43.0902" y1="62.7869" x2="43.2386" y2="65.3131" gradientUnits="userSpaceOnUse">
<stop stop-color="#5151E5"/>
<stop offset="1" stop-color="#72EDF2"/>
</linearGradient>
<linearGradient id="paint7_linear_163_4" x1="46.7196" y1="69.7869" x2="46.9267" y2="72.3048" gradientUnits="userSpaceOnUse">
<stop stop-color="#5151E5"/>
<stop offset="1" stop-color="#72EDF2"/>
</linearGradient>
<linearGradient id="paint8_linear_163_4" x1="50.3489" y1="76.7869" x2="50.6901" y2="79.2751" gradientUnits="userSpaceOnUse">
<stop stop-color="#5151E5"/>
<stop offset="1" stop-color="#72EDF2"/>
</linearGradient>
</defs>
</svg>
